<?xml version="1.0" standalone="no"?>
<!DOCTYPE svg PUBLIC "-//W3C//DTD SVG 20010904//EN"
 "http://www.w3.org/TR/2001/REC-SVG-20010904/DTD/svg10.dtd">
<svg version="1.0" xmlns="http://www.w3.org/2000/svg"
 width="400.000000pt" height="400.000000pt" viewBox="0 0 400.000000 400.000000"
 preserveAspectRatio="xMidYMid meet">
<metadata>
Created by potrace 1.11, written by Peter Selinger 2001-2013
</metadata>
<g transform="translate(0.000000,400.000000) scale(0.100000,-0.100000)"
fill="#000000" stroke="none">
<path d="M1947 3924 c-1 -1 -42 -5 -92 -8 -144 -11 -171 -15 -263 -36 -135
-31 -306 -86 -371 -120 -9 -5 -33 -16 -53 -24 -20 -9 -40 -21 -43 -26 -4 -6
-10 -8 -14 -5 -4 2 -23 -7 -41 -20 -19 -14 -37 -25 -42 -25 -8 0 -193 -124
-215 -144 -6 -6 -33 -29 -59 -51 -63 -53 -180 -170 -224 -224 -19 -23 -40 -49
-47 -56 -11 -12 -132 -194 -160 -240 -26 -44 -79 -157 -121 -260 -41 -99 -99
-321 -106 -405 -2 -25 -7 -81 -11 -125 -12 -129 -10 -210 10 -427 8 -82 70
-325 101 -395 8 -17 14 -35 14 -40 0 -9 44 -107 61 -133 5 -8 14 -26 19 -38
43 -100 214 -343 312 -442 125 -127 337 -300 367 -300 5 0 13 -6 19 -13 6 -6
39 -27 74 -45 35 -18 70 -37 78 -42 82 -45 301 -127 365 -137 17 -2 50 -10 75
-18 25 -8 72 -17 104 -21 33 -3 69 -8 80 -10 35 -7 177 -17 236 -17 65 0 212
11 232 17 7 3 39 7 70 10 91 8 367 84 392 107 6 5 17 9 25 9 22 0 232 108 316
162 417 270 700 664 830 1153 23 86 24 94 31 155 3 30 7 66 9 80 13 80 16 127
16 235 -1 66 -3 134 -5 150 -2 17 -7 53 -10 80 -14 111 -18 133 -38 215 -21
88 -55 196 -83 265 -24 57 -55 127 -65 145 -5 8 -24 43 -42 78 -18 35 -39 68
-45 74 -7 6 -13 15 -13 20 0 6 -20 37 -45 69 -25 33 -45 61 -45 64 0 3 -8 14
-17 24 -10 10 -28 32 -41 47 -131 161 -392 374 -562 458 -30 15 -62 31 -70 36
-14 8 -66 31 -135 60 -97 41 -344 106 -435 115 -139 14 -317 24 -323 19z"/>
</g>
</svg>
